<?xml version="1.0" standalone="no"?>
<!DOCTYPE svg PUBLIC "-//W3C//DTD SVG 20010904//EN"
 "http://www.w3.org/TR/2001/REC-SVG-20010904/DTD/svg10.dtd">
<svg version="1.0" xmlns="http://www.w3.org/2000/svg"
 width="2146.000000pt" height="2146.000000pt" viewBox="0 0 2146.000000 2146.000000"
 preserveAspectRatio="xMidYMid meet">
<metadata>
Created by potrace 1.14, written by Peter Selinger 2001-2017
</metadata>
<g transform="translate(0.000000,2146.000000) scale(0.100000,-0.100000)"
fill="#000000" stroke="none">
<path d="M15170 13994 c-57 -9 -166 -27 -185 -31 -34 -7 -50 -11 -52 -13 -2
-2 -6 -3 -10 -4 -68 -15 -114 -30 -119 -37 -3 -5 -15 -9 -28 -9 -12 0 -26 -3
-30 -7 -4 -5 -11 -8 -14 -8 -4 -1 -48 -22 -99 -47 -186 -93 -360 -226 -503
-385 -67 -74 -82 -93 -120 -148 -19 -27 -38 -52 -41 -55 -5 -4 -56 -85 -119
-190 -20 -34 -90 -181 -90 -190 0 -6 -4 -10 -10 -10 -5 0 -10 -7 -10 -15 0 -8
-4 -23 -9 -33 -9 -17 -33 -72 -36 -82 -1 -3 -5 -12 -8 -20 -39 -96 -135 -419
-143 -483 -2 -16 -6 -32 -9 -37 -3 -4 -7 -25 -11 -46 -3 -22 -9 -55 -14 -74
-5 -19 -12 -48 -15 -65 -11 -56 -16 -80 -36 -175 -11 -52 -22 -106 -24 -120
-5 -26 -7 -38 -18 -80 -4 -14 -20 -81 -36 -150 -17 -69 -37 -144 -45 -167 -8
-24 -13 -43 -11 -43 5 0 -68 -204 -104 -292 -45 -108 -138 -278 -153 -278 -4
0 -8 -6 -8 -14 0 -12 -141 -161 -183 -194 -22 -17 -147 -83 -147 -78 0 2 -19
-2 -43 -9 -65 -20 -182 -17 -252 7 -149 49 -244 139 -314 298 -32 72 -45 233
-26 320 4 19 23 68 42 108 106 219 379 347 588 274 37 -13 70 -37 131 -98 79
-79 106 -95 169 -99 46 -3 135 51 135 81 0 7 5 14 11 16 6 2 11 29 11 61 1 49
-6 71 -50 159 -57 115 -83 161 -94 166 -5 2 -8 8 -8 14 0 5 -6 15 -12 22 -7 8
-20 24 -28 37 -46 69 -201 232 -290 302 -36 28 -67 54 -70 57 -13 15 -149 95
-228 134 -117 59 -213 92 -357 122 -69 14 -248 21 -310 11 -93 -15 -137 -42
-131 -82 5 -37 52 -54 210 -80 16 -3 47 -10 70 -16 22 -6 48 -12 56 -14 83
-17 357 -141 368 -167 2 -5 8 -8 14 -8 19 0 142 -103 202 -169 17 -19 38 -41
46 -50 9 -9 21 -24 29 -33 11 -14 10 -17 -6 -17 -157 3 -354 -57 -490 -149
-161 -109 -295 -317 -328 -507 -2 -16 -7 -41 -10 -55 -18 -90 1 -317 35 -405
5 -14 7 -25 4 -25 -3 0 1 -12 10 -27 8 -16 24 -48 36 -73 95 -202 264 -340
500 -412 105 -31 327 -31 443 0 92 25 248 98 293 137 6 6 31 26 55 45 85 69
203 208 253 300 11 19 22 37 25 40 15 13 141 283 141 302 0 6 6 24 14 41 27
63 107 322 121 394 1 10 8 38 15 63 7 25 14 56 17 70 2 14 11 54 19 90 9 36
18 76 20 90 2 14 11 54 19 90 8 36 17 81 20 100 3 19 11 55 16 80 6 25 13 56
15 70 4 21 33 147 49 212 12 53 47 176 54 193 5 11 21 56 37 100 15 44 47 123
71 175 24 52 44 97 44 100 0 3 6 12 12 20 11 14 23 33 52 85 69 124 223 305
340 401 57 46 170 124 181 124 4 0 15 6 23 13 17 14 134 68 155 71 6 1 25 7
41 13 42 17 139 40 205 49 116 16 342 8 445 -17 22 -5 51 -12 64 -15 62 -13
155 -49 261 -101 63 -31 117 -59 120 -62 3 -3 34 -26 70 -51 35 -24 72 -51 80
-60 9 -8 39 -35 66 -60 177 -164 298 -381 351 -630 9 -45 9 -314 -1 -360 -20
-99 -61 -227 -78 -247 -6 -7 -8 -13 -4 -13 16 0 -112 -219 -179 -306 -25 -32
-55 -72 -67 -89 -42 -55 -212 -221 -287 -280 -84 -66 -269 -185 -288 -185 -7
0 -13 -4 -13 -10 0 -5 -7 -10 -15 -10 -9 0 -26 -7 -39 -15 -24 -16 -178 -83
-206 -90 -8 -2 -39 -13 -67 -24 -29 -12 -53 -18 -53 -15 0 4 -6 2 -12 -3 -7
-6 -26 -14 -43 -18 -16 -5 -34 -10 -40 -11 -32 -11 -295 -75 -320 -78 -16 -3
-51 -9 -78 -15 -26 -6 -64 -14 -83 -17 -20 -3 -46 -7 -57 -10 -12 -2 -37 -6
-57 -9 -20 -3 -47 -8 -60 -10 -14 -3 -41 -8 -60 -11 -19 -3 -46 -7 -60 -10
-14 -2 -43 -7 -65 -10 -22 -3 -46 -7 -54 -10 -8 -3 -30 -7 -50 -10 -61 -9
-252 -62 -319 -88 -61 -24 -182 -88 -210 -110 -21 -18 -84 -84 -98 -105 -34
-48 -17 -109 38 -132 52 -22 55 -22 223 -25 182 -3 364 -12 375 -19 4 -3 30
-7 56 -9 56 -6 92 -12 149 -28 22 -5 47 -12 56 -13 42 -8 232 -76 294 -106 65
-30 264 -145 275 -158 3 -3 22 -19 43 -34 20 -16 48 -38 61 -50 13 -12 39 -36
57 -53 52 -48 132 -135 164 -179 17 -22 33 -42 36 -45 15 -13 101 -153 137
-225 62 -122 128 -304 148 -408 2 -12 6 -35 10 -50 3 -16 7 -38 9 -50 2 -12 7
-42 11 -67 17 -99 9 -497 -12 -593 -3 -12 -7 -35 -10 -52 -3 -24 -24 -112 -58
-245 -2 -8 -9 -28 -15 -43 l-11 -28 -87 6 c-82 6 -107 9 -174 20 -14 3 -41 7
-60 9 -33 5 -102 19 -144 29 -11 3 -40 10 -65 16 -48 11 -161 46 -195 60 -11
5 -51 21 -90 37 -38 15 -108 48 -155 72 -47 25 -95 50 -107 56 -13 6 -23 14
-23 19 0 4 -6 7 -12 7 -31 1 -233 164 -345 278 -81 83 -203 234 -203 251 0 5
-4 11 -10 13 -26 9 -181 300 -235 443 -59 156 -120 366 -140 485 -20 120 -48
193 -89 238 -34 37 -63 40 -98 12 -20 -15 -69 -95 -59 -95 1 0 -2 -12 -8 -28
-6 -15 -13 -40 -16 -55 -6 -29 -7 -197 -1 -222 25 -117 23 -109 25 -112 2 -2
4 -16 6 -33 5 -39 16 -76 81 -280 81 -250 220 -517 363 -695 20 -25 41 -51 46
-58 29 -39 259 -262 275 -267 11 -4 20 -10 20 -14 0 -13 218 -156 316 -207 49
-25 94 -49 99 -52 43 -27 336 -132 440 -158 113 -28 176 -42 220 -49 17 -3 41
-7 55 -10 77 -14 144 -24 210 -30 25 -3 63 -7 85 -9 22 -3 99 -8 171 -11 l130
-6 21 48 c23 51 82 207 89 233 2 8 20 76 39 150 20 74 38 155 41 180 3 24 7
47 9 50 4 6 7 29 21 170 8 75 8 373 0 440 -2 25 -8 70 -11 100 -3 30 -13 87
-21 125 -9 39 -17 79 -18 90 -2 11 -5 27 -8 35 -3 8 -15 49 -27 90 -46 156
-108 299 -190 440 -17 30 -37 65 -43 78 -6 12 -15 22 -20 22 -4 0 -8 5 -8 11
0 10 -38 61 -113 153 -204 250 -538 477 -851 580 -29 10 -18 13 69 20 44 3 94
9 110 11 17 3 46 7 65 9 19 3 35 5 35 6 0 1 11 3 25 6 119 20 385 97 465 134
11 5 54 24 95 43 73 32 216 105 254 130 11 6 45 27 75 46 455 281 825 770 952
1256 36 139 43 206 43 380 0 152 -7 217 -30 310 -9 33 -17 70 -20 81 -2 12
-11 37 -19 56 -8 20 -11 38 -8 42 4 3 0 6 -7 6 -7 0 -11 3 -7 6 12 12 -114
241 -183 333 -75 100 -233 265 -244 254 -3 -3 -6 -1 -6 5 0 14 -133 113 -230
170 -131 78 -321 158 -445 188 -82 19 -117 27 -150 30 -22 3 -51 7 -65 11 -30
6 -334 12 -370 7z"/>
<path d="M9116 12040 c-2 -3 -4 -50 -6 -105 -1 -55 -3 -181 -5 -280 -2 -99 -7
-306 -10 -460 -3 -154 -8 -372 -11 -485 -3 -113 -5 -220 -5 -237 1 -18 1 -39
1 -45 0 -7 -1 -96 -2 -198 -3 -231 5 -289 60 -450 91 -268 256 -437 457 -466
86 -13 86 -13 94 9 5 12 7 30 5 40 -1 9 0 17 4 17 4 0 7 12 7 28 1 27 12 123
21 175 4 23 1 27 -21 27 -37 0 -120 34 -156 65 -66 55 -105 125 -140 250 -20
73 -22 101 -21 305 2 324 9 556 16 569 4 6 2 11 -4 11 -6 0 -9 4 -5 10 3 5 8
91 10 192 4 171 12 454 20 733 5 172 7 257 6 281 -1 20 -6 20 -157 20 -85 0
-157 -3 -158 -6z"/>
<path d="M7257 11673 c-2 -1 -49 -3 -104 -4 l-102 -1 4 -382 c3 -209 7 -633
11 -941 7 -648 11 -1028 13 -1036 1 -4 226 -4 276 0 6 1 10 38 9 96 -1 52 0
95 2 95 2 0 34 -22 72 -50 38 -27 72 -50 76 -50 4 0 21 -9 37 -21 16 -11 29
-18 29 -14 0 3 13 -1 29 -10 16 -8 49 -21 73 -29 176 -59 314 -64 453 -19 28
9 52 16 55 16 7 0 102 52 150 82 55 35 171 146 206 197 16 24 32 45 35 48 9 6
80 146 96 185 25 65 39 120 51 190 9 51 9 259 0 305 -10 57 -39 142 -55 167
-8 13 -13 23 -9 23 3 0 -8 24 -26 53 -143 236 -356 383 -613 421 -44 7 -93 12
-110 10 -171 -13 -339 -75 -470 -174 -49 -37 -65 -45 -66 -32 0 9 1 73 1 142
1 69 3 263 4 431 l3 306 -64 -1 c-35 0 -65 -1 -66 -3z m793 -987 c171 -59 290
-187 340 -368 25 -89 22 -264 -5 -343 -36 -108 -79 -180 -150 -250 -104 -105
-213 -153 -350 -153 -220 -2 -400 114 -488 314 -26 60 -27 67 -27 251 0 190 4
214 41 273 5 8 13 24 18 36 16 36 113 134 173 175 32 22 58 37 58 33 0 -3 6
-1 13 5 31 25 134 48 222 48 68 1 106 -4 155 -21z"/>
<path d="M937 11594 c-1 -1 -60 -5 -132 -8 -71 -4 -143 -8 -160 -10 -16 -2
-64 -7 -105 -10 -70 -7 -87 -9 -157 -20 -16 -3 -48 -8 -73 -11 -25 -4 -48 -11
-51 -16 -3 -6 -5 -38 -3 -72 2 -55 11 -324 19 -627 2 -58 6 -204 10 -325 3
-121 8 -281 10 -355 2 -74 7 -223 10 -330 3 -107 8 -266 10 -354 2 -87 5 -159
7 -161 11 -10 409 -29 618 -29 171 0 475 16 475 25 0 1 16 3 35 4 19 2 35 4
35 5 0 1 11 4 25 6 167 30 400 120 466 180 6 6 25 21 40 35 177 150 239 431
142 646 -12 27 -22 50 -23 53 -2 13 -56 88 -82 115 -37 39 -100 87 -138 104
-81 37 -77 30 -38 64 54 48 139 174 158 237 15 48 28 143 30 208 2 74 -1 101
-19 192 -3 14 -21 57 -40 95 -75 152 -218 251 -436 303 -120 29 -182 38 -315
48 -77 5 -314 12 -318 8z m458 -299 c65 -15 157 -50 180 -67 81 -61 138 -134
156 -201 54 -202 -60 -379 -296 -458 -102 -34 -164 -44 -340 -54 -150 -8 -259
-17 -267 -21 -3 -2 -9 0 -13 6 -4 6 -13 7 -23 2 -9 -4 -55 -8 -101 -7 l-84 0
-3 74 c-2 41 -5 80 -8 87 -3 7 -1 16 5 19 5 4 7 11 3 16 -5 9 -15 278 -18 488
-1 87 1 94 19 97 79 13 160 22 280 30 43 3 80 6 82 7 1 2 82 2 180 1 128 -1
197 -6 248 -19z m120 -1030 c135 -17 245 -78 322 -177 39 -51 48 -151 23 -236
-33 -106 -193 -218 -372 -258 -10 -2 -28 -6 -40 -9 -108 -24 -183 -33 -362
-40 -77 -3 -142 -7 -144 -9 -2 -2 -17 0 -33 4 -16 5 -31 5 -34 0 -3 -5 -18 -5
-33 -1 -15 5 -36 5 -47 1 -11 -4 -24 -5 -28 -3 -5 3 -35 5 -68 5 -32 1 -59 4
-60 7 -1 8 -5 115 -14 391 -3 118 -8 230 -10 248 -3 20 0 32 8 33 53 4 109 8
212 13 66 3 143 8 170 11 50 5 94 8 275 20 52 4 96 8 98 10 4 3 76 -2 137 -10z"/>
<path d="M4747 11004 c-1 -1 -38 -5 -82 -9 -105 -9 -146 -14 -154 -20 -4 -2
-7 -48 -5 -102 1 -54 5 -224 9 -378 3 -154 8 -332 10 -395 5 -178 18 -691 18
-733 l0 -38 96 5 c53 3 122 6 153 7 l57 2 -4 331 c-3 182 -5 331 -6 331 -5 0
-2 158 3 161 3 2 32 43 64 92 208 314 328 416 429 362 23 -12 66 -84 72 -120
22 -134 39 -515 43 -958 l1 -213 122 7 c67 3 135 6 150 7 l29 1 -7 385 c-3
212 -7 404 -9 426 -2 35 6 53 68 144 39 57 81 119 94 138 35 51 169 181 192
184 3 0 14 3 25 5 44 11 61 10 89 -5 31 -17 70 -91 80 -151 5 -26 17 -883 16
-1113 l0 -28 138 7 c75 4 148 6 161 5 l24 -1 -7 393 c-4 215 -9 419 -11 452
-1 33 -6 119 -9 191 -12 234 -19 279 -58 361 -62 130 -172 195 -329 195 -140
0 -288 -95 -450 -290 l-44 -53 -16 65 c-18 70 -64 153 -107 192 -119 108 -304
115 -468 19 -67 -39 -188 -161 -281 -284 -10 -13 -13 -2 -14 64 -3 180 -7 350
-8 358 -1 6 -67 7 -74 1z"/>
<path d="M10608 10994 c-2 -1 -19 -4 -38 -7 -229 -36 -441 -180 -570 -389 -41
-68 -104 -214 -115 -268 -37 -190 -35 -348 5 -511 10 -42 26 -94 36 -115 9
-22 18 -41 19 -44 11 -43 108 -177 164 -227 97 -87 236 -153 385 -184 118 -24
310 -20 411 8 242 69 434 237 545 477 39 84 48 115 33 117 -5 0 -15 2 -23 4
-45 10 -124 26 -205 41 -53 11 -59 9 -63 -11 -9 -53 -69 -154 -126 -211 -108
-107 -212 -149 -371 -148 -103 0 -220 28 -256 60 -9 8 -18 12 -21 9 -3 -3 -34
24 -71 59 -85 83 -147 211 -151 311 -1 20 11 24 128 40 23 4 52 8 66 10 14 2
45 7 70 10 25 3 86 13 135 20 106 17 147 23 195 29 19 3 55 8 80 12 25 4 55 8
68 8 12 1 22 3 22 6 0 3 10 5 23 6 30 1 125 14 167 23 19 4 45 7 58 6 12 -1
22 1 22 4 0 3 10 6 23 7 12 0 45 4 72 8 28 4 64 9 80 11 45 5 97 15 106 21 8
4 5 43 -6 94 -3 14 -8 35 -11 48 -7 34 -43 131 -67 182 -67 142 -190 284 -315
365 -41 26 -79 48 -85 49 -7 1 -21 7 -32 13 -19 10 -103 37 -156 49 -24 6
-227 13 -231 8z m248 -290 c21 -9 42 -16 46 -16 4 1 38 -29 75 -67 47 -47 79
-91 106 -144 20 -42 37 -80 37 -86 0 -5 -24 -12 -52 -16 -29 -3 -69 -8 -89
-11 -20 -2 -54 -6 -75 -9 -21 -2 -59 -7 -84 -10 -25 -3 -65 -8 -90 -10 -25 -3
-54 -7 -65 -9 -11 -3 -51 -8 -90 -11 -38 -4 -77 -8 -85 -10 -8 -2 -46 -7 -85
-11 -38 -3 -79 -8 -90 -10 -11 -3 -42 -7 -68 -10 l-48 -5 7 28 c30 127 80 220
163 301 46 45 131 98 169 106 9 1 24 6 32 9 65 27 216 22 286 -9z"/>
<path d="M16858 10995 c-2 -1 -24 -5 -50 -8 -73 -9 -210 -60 -290 -108 -83
-50 -209 -170 -256 -244 -17 -27 -35 -54 -40 -60 -11 -14 -82 -180 -88 -207
-3 -13 -7 -34 -10 -48 -2 -14 -7 -32 -10 -40 -7 -19 -17 -141 -17 -205 0 -255
87 -484 242 -634 80 -77 223 -155 323 -177 53 -12 64 -14 88 -20 14 -3 79 -8
145 -10 160 -4 257 15 390 77 53 25 148 87 153 101 2 4 8 8 12 8 5 0 33 26 62
57 29 31 61 65 71 75 9 10 17 20 17 22 0 3 14 25 30 49 17 25 30 49 30 55 0 5
6 15 14 21 8 7 18 27 22 44 3 18 11 37 16 44 5 6 11 23 14 36 4 24 0 26 -53
37 -32 6 -97 19 -146 30 -48 10 -89 15 -91 11 -2 -3 -9 -23 -16 -44 -6 -21
-23 -59 -38 -85 -30 -54 -144 -172 -167 -172 -8 0 -15 -4 -15 -10 0 -5 -9 -10
-20 -10 -11 0 -20 -4 -20 -8 0 -7 -37 -20 -110 -39 -45 -12 -173 -10 -235 2
-95 20 -168 59 -238 128 -76 75 -126 176 -143 290 -4 30 4 36 58 42 18 2 33 4
33 5 0 1 14 3 30 5 50 5 119 15 140 19 29 5 96 16 130 20 17 3 44 7 60 10 17
2 55 8 85 11 30 4 57 8 60 10 3 1 32 6 65 10 33 4 69 9 80 11 27 4 76 12 128
19 23 3 67 10 97 15 30 6 78 12 105 15 28 3 57 8 65 10 8 2 38 7 65 10 118 15
125 17 120 43 -2 9 -9 46 -16 82 -29 154 -119 331 -225 447 -46 49 -174 153
-189 153 -6 0 -17 6 -23 13 -7 6 -16 12 -20 12 -4 1 -21 8 -37 17 -28 15 -109
41 -166 54 -26 6 -216 13 -221 9z m127 -266 c108 -6 210 -66 288 -172 33 -44
92 -166 84 -174 -3 -3 -21 -6 -39 -8 -36 -3 -138 -14 -178 -20 -14 -2 -50 -6
-80 -10 -30 -3 -73 -8 -95 -12 -22 -3 -51 -6 -65 -8 -110 -11 -159 -17 -185
-22 -16 -3 -43 -6 -60 -8 -46 -4 -147 -16 -177 -21 -15 -2 -29 0 -32 4 -9 15
25 125 57 186 44 82 139 176 218 215 55 27 193 64 209 55 3 -1 28 -3 55 -5z"/>
<path d="M18685 10989 c-183 -28 -336 -107 -463 -238 -78 -81 -78 -81 -118
-146 -57 -95 -97 -182 -108 -237 -3 -13 -7 -34 -10 -48 -10 -44 -15 -74 -21
-110 -8 -42 -8 -215 -1 -250 2 -14 7 -43 10 -65 22 -162 106 -335 216 -442
155 -152 359 -224 615 -218 122 3 145 6 225 29 47 14 181 74 190 85 3 3 24 19
47 35 54 36 133 115 188 186 35 46 66 104 124 230 13 28 7 53 -14 56 -11 1
-33 5 -50 8 -39 8 -175 36 -198 41 -10 2 -20 -3 -23 -11 -2 -8 -7 -22 -11 -31
-3 -10 -7 -24 -9 -31 -7 -34 -74 -129 -124 -175 -62 -57 -168 -110 -250 -125
-53 -10 -174 -8 -235 3 -16 3 -64 22 -105 42 -128 61 -218 177 -255 327 -9 38
-13 72 -8 76 4 5 27 11 51 14 114 16 157 23 157 26 0 1 20 3 45 6 89 9 115 12
115 14 0 1 9 4 20 5 21 2 91 12 136 20 13 2 44 6 69 9 25 3 56 8 70 11 13 2
41 7 62 10 21 3 57 8 81 11 23 4 56 8 72 10 17 1 52 7 80 12 27 6 53 8 57 6 3
-2 9 0 13 6 4 6 10 8 15 5 4 -3 30 -1 56 4 27 5 72 12 99 16 28 3 66 9 85 14
34 7 35 9 32 47 -7 71 -43 192 -90 294 -59 130 -207 295 -331 368 -68 40 -177
83 -246 97 -50 10 -207 12 -260 4z m241 -273 c59 -13 156 -85 204 -152 32 -45
90 -156 90 -173 0 -5 -26 -13 -57 -16 -32 -4 -69 -9 -83 -11 -14 -2 -50 -7
-80 -10 -30 -3 -68 -8 -85 -10 -16 -3 -46 -6 -65 -8 -135 -15 -213 -24 -260
-32 -14 -2 -54 -6 -90 -10 -36 -3 -74 -8 -85 -10 -11 -2 -41 -7 -68 -9 l-47
-5 6 27 c18 83 61 193 75 193 5 0 9 6 9 13 0 18 106 128 150 154 115 70 247
91 386 59z"/>
<path d="M2574 10969 c-2 -4 -7 -27 -9 -51 -3 -24 -7 -52 -9 -63 -2 -11 -7
-49 -10 -85 -4 -36 -8 -79 -11 -97 -5 -37 -17 -280 -16 -303 1 -8 1 -24 1 -35
-1 -11 -1 -24 -1 -30 0 -61 0 -92 0 -105 -1 -23 9 -158 16 -225 10 -92 42
-246 62 -295 3 -8 7 -20 8 -26 6 -25 69 -142 93 -174 64 -79 144 -141 223
-171 64 -25 89 -29 191 -36 120 -8 207 20 323 102 60 43 185 167 185 184 0 5
3 11 8 13 4 2 25 29 46 61 21 32 40 56 44 53 3 -3 6 -95 8 -203 1 -109 2 -202
3 -206 1 -4 79 -6 174 -5 l174 3 -3 129 c-1 71 -5 211 -8 310 -4 100 -9 255
-12 346 -3 91 -7 215 -9 275 -7 173 -17 493 -19 570 -1 68 -2 70 -26 68 -64
-5 -245 -24 -268 -28 -9 -2 -22 -4 -28 -4 -7 -1 -10 -37 -8 -108 2 -60 6 -226
9 -370 l7 -261 -42 -84 c-112 -222 -210 -360 -315 -444 -68 -55 -119 -77 -186
-81 -71 -4 -117 15 -170 69 -127 131 -171 424 -145 953 3 72 8 141 10 155 4
25 17 138 20 175 1 19 -6 20 -109 22 -60 2 -129 4 -153 6 -23 2 -45 0 -48 -4z"/>
<path d="M20577 10974 c-1 -1 -31 -4 -67 -7 -36 -4 -76 -9 -90 -11 -14 -3 -38
-8 -55 -12 -129 -25 -281 -108 -371 -200 -54 -56 -118 -168 -129 -226 -14 -75
-16 -179 -4 -235 7 -32 13 -60 14 -63 5 -25 47 -83 91 -127 74 -72 218 -138
349 -159 74 -12 95 -15 140 -19 28 -3 86 -7 130 -10 98 -7 155 -14 164 -20 4
-2 23 -7 41 -10 56 -10 137 -54 174 -95 106 -118 45 -261 -133 -314 -40 -12
-84 -15 -175 -12 -132 4 -155 7 -266 37 -41 12 -82 22 -90 24 -27 6 -158 63
-255 111 -82 40 -98 45 -109 33 -7 -8 -41 -59 -76 -114 l-63 -99 34 -28 c90
-76 353 -182 504 -204 17 -3 36 -7 43 -9 27 -9 149 -19 237 -19 82 0 136 5
205 19 14 3 41 8 60 11 60 11 168 54 231 91 111 67 198 188 215 303 33 212
-42 379 -211 474 -60 33 -170 73 -226 81 -24 4 -46 8 -49 10 -8 5 -154 24
-235 30 -230 18 -282 28 -356 67 -65 34 -79 57 -86 145 -9 133 74 209 270 246
70 13 256 15 307 3 14 -4 36 -8 50 -11 14 -3 35 -7 46 -9 60 -12 263 -86 335
-122 5 -3 67 149 69 168 0 4 10 29 20 54 26 61 27 60 -100 124 -79 40 -240 82
-365 96 -58 6 -213 12 -218 8z"/>
<path d="M13942 10115 c-153 -110 -335 -283 -321 -307 8 -15 45 -153 53 -198
2 -14 11 -56 21 -93 9 -37 18 -73 19 -80 12 -54 30 -108 40 -114 6 -3 8 -3 4
1 -6 7 73 141 91 156 3 3 18 21 33 41 26 35 145 157 185 190 138 113 348 231
511 288 46 16 85 32 88 35 2 3 1 4 -3 1 -3 -3 -11 -1 -17 4 -6 5 -45 19 -86
31 -41 12 -86 26 -100 30 -32 11 -111 27 -175 35 -28 4 -53 9 -56 11 -4 2 -51
7 -105 10 -55 3 -101 7 -104 8 -3 2 -38 -20 -78 -49z"/>
<path d="M14995 9827 c-16 -5 -37 -12 -45 -15 -8 -3 -17 -6 -20 -7 -7 -2 -29
-11 -120 -48 -81 -33 -209 -98 -252 -128 -14 -11 -29 -19 -33 -19 -5 0 -35
-21 -90 -63 -5 -4 -32 -24 -60 -44 -71 -53 -99 -77 -190 -168 -97 -97 -121
-125 -203 -234 -98 -131 -98 -132 -65 -194 15 -29 35 -63 44 -77 9 -14 29 -45
45 -70 54 -85 118 -170 126 -170 5 0 16 17 25 38 8 20 18 39 22 42 3 3 12 17
18 32 14 32 102 168 118 183 6 6 29 33 50 60 86 109 242 245 380 332 128 81
402 193 508 208 84 12 107 22 86 39 -8 6 -27 28 -42 49 -39 52 -151 165 -217
219 -50 40 -58 44 -85 35z"/>
<path d="M15470 9220 c-14 -4 -47 -15 -75 -23 -27 -9 -68 -23 -90 -33 -22 -9
-40 -15 -40 -14 0 4 -190 -93 -215 -110 -14 -9 -45 -30 -70 -46 -216 -138
-434 -358 -582 -586 l-37 -57 52 -41 c89 -70 110 -85 137 -97 8 -4 17 -10 20
-14 3 -4 31 -21 62 -38 l58 -31 27 43 c16 23 31 44 36 45 4 2 7 10 7 17 0 7 3
15 8 17 4 2 26 28 48 58 91 122 271 284 419 377 97 61 299 146 375 158 8 1 15
11 15 21 1 57 -98 354 -120 360 -6 1 -21 -1 -35 -6z"/>
<path d="M15532 8465 c-99 -34 -140 -53 -222 -104 -114 -71 -220 -173 -298
-284 l-43 -62 33 -14 c53 -21 259 -72 269 -66 5 4 9 2 9 -2 0 -5 8 -9 18 -9 9
-1 34 -4 56 -8 32 -5 42 -3 60 17 27 29 130 107 142 107 23 0 64 48 69 80 3
19 8 43 11 54 7 22 9 44 19 203 9 143 19 137 -123 88z"/>
</g>
</svg>
